<?xml version="1.0" standalone="no"?>
<!DOCTYPE svg PUBLIC "-//W3C//DTD SVG 20010904//EN"
 "http://www.w3.org/TR/2001/REC-SVG-20010904/DTD/svg10.dtd">
<svg version="1.0" xmlns="http://www.w3.org/2000/svg"
 width="640.000000pt" height="640.000000pt" viewBox="0 0 640.000000 640.000000"
 preserveAspectRatio="xMidYMid meet">
<metadata>
Created by potrace 1.11, written by Peter Selinger 2001-2013
</metadata>
<g transform="translate(0.000000,640.000000) scale(0.100000,-0.100000)"
fill="#000000" stroke="none">
<path d="M0 5290 c0 -1099 0 -1110 20 -1098 10 7 22 9 26 5 9 -9 -15 -37 -32
-37 -12 0 -14 -320 -14 -2080 l0 -2080 307 2 306 3 9 30 c5 17 15 44 22 60 8
17 20 50 27 75 10 36 14 40 17 22 2 -13 -4 -42 -13 -64 -17 -44 -13 -62 8 -34
8 10 26 20 41 21 23 3 27 0 23 -16 -3 -10 -1 -22 4 -25 5 -3 9 0 9 7 0 16 13
3 16 -16 3 -17 -5 -19 -25 -6 -16 10 -91 -22 -91 -39 0 -5 11 -12 25 -16 25
-6 42 -4 79 12 14 5 17 4 12 -4 -5 -9 20 -12 97 -12 97 0 105 1 110 21 3 12 0
22 -9 26 -8 3 -14 9 -14 14 0 12 37 12 45 -1 3 -5 33 -12 66 -16 53 -6 60 -9
56 -25 -5 -18 17 -19 689 -19 l694 0 1 98 c0 111 13 100 24 -21 4 -42 11 -77
16 -77 5 0 6 12 4 28 -20 114 -46 369 -49 477 -2 72 -9 154 -16 183 -6 29 -10
56 -7 58 2 3 12 -27 22 -66 10 -39 19 -69 21 -67 5 5 -32 196 -51 262 -22 77
-47 217 -40 223 3 4 10 0 15 -8 6 -8 10 -10 10 -5 0 6 -6 17 -13 24 -10 11 -9
13 5 8 12 -4 15 0 13 19 -1 13 2 24 7 24 6 0 8 7 4 15 -3 8 -1 15 5 15 6 0 7
6 4 13 -4 6 3 1 15 -12 11 -13 18 -31 16 -38 -3 -8 -1 -11 4 -8 6 3 10 0 10
-8 0 -8 9 -24 20 -37 11 -13 20 -28 20 -33 0 -6 3 -8 6 -5 3 4 -2 20 -11 38
-9 18 -15 34 -13 36 2 2 16 -21 31 -50 27 -52 35 -92 18 -82 -12 8 -34 -21
-26 -33 3 -6 6 -43 6 -82 0 -40 7 -110 14 -156 8 -47 11 -91 8 -99 -3 -8 -1
-14 5 -14 6 0 14 -30 17 -66 6 -50 11 -64 21 -60 11 4 13 -1 8 -19 -4 -15 -2
-25 5 -25 10 0 9 -143 -4 -280 -3 -31 -1 -39 5 -25 6 14 9 -7 9 -62 l1 -83
660 0 c363 0 660 1 660 3 0 1 -14 36 -31 77 -17 41 -57 145 -89 230 -81 214
-120 307 -247 590 -132 292 -218 505 -234 578 -17 81 -34 61 -34 -39 1 -47 -4
-87 -10 -91 -5 -5 -22 -5 -37 -2 -16 3 -28 2 -28 -3 0 -12 -84 -7 -108 6 -11
6 -28 24 -36 41 -9 16 -24 45 -33 62 -10 19 -18 55 -18 83 0 55 12 73 77 117
21 14 35 28 31 32 -4 4 0 4 8 1 8 -3 23 3 33 13 12 15 28 19 60 16 l43 -2 6
59 c3 32 13 72 24 87 10 16 32 49 48 74 17 25 35 54 42 64 9 15 9 11 1 -17 -8
-27 -7 -52 6 -106 15 -66 50 -163 59 -163 2 0 4 19 4 43 0 29 -2 36 -7 22 l-7
-20 -5 20 c-2 11 -1 30 3 42 4 11 6 40 4 62 -2 23 0 41 5 41 4 0 5 12 1 26 -4
17 2 59 18 115 l25 89 38 0 c48 0 53 -2 51 -20 -1 -7 7 -22 18 -31 13 -11 16
-20 9 -24 -17 -10 -11 -28 7 -21 16 6 16 6 0 -12 -23 -25 -21 -35 3 -27 11 4
20 3 19 -2 -3 -20 2 -27 11 -13 5 8 12 11 16 7 4 -4 -3 -18 -16 -32 -23 -25
-15 -36 8 -13 17 17 36 -10 20 -29 -9 -12 -5 -17 13 -15 3 1 5 -9 4 -21 -2
-30 6 -42 16 -26 7 11 9 11 9 -2 0 -24 26 -70 34 -62 8 8 26 -15 26 -34 0 -7
-5 -13 -11 -13 -5 0 -8 4 -4 9 6 11 -13 26 -22 18 -8 -8 39 -67 49 -61 4 3 8
0 8 -5 0 -6 6 -11 14 -11 15 0 32 -35 28 -56 -1 -6 5 -17 13 -24 12 -10 15 -9
16 6 0 18 1 18 8 -1 5 -11 6 -26 4 -32 -3 -7 0 -13 7 -13 6 0 8 5 4 12 -5 7
-2 9 9 5 9 -3 18 -1 21 6 3 7 3 0 0 -14 -4 -21 -1 -27 15 -32 13 -3 21 -13 21
-26 0 -22 33 -30 45 -11 9 15 25 12 25 -4 0 -8 -8 -17 -17 -20 -14 -6 -14 -9
6 -22 14 -10 26 -12 34 -7 16 12 57 14 57 3 0 -4 -6 -11 -12 -13 -8 -3 -6 -6
4 -6 10 -1 17 -4 17 -8 -1 -5 -1 -15 0 -23 1 -13 3 -13 10 -1 8 12 12 12 26
-2 9 -9 13 -21 10 -27 -3 -5 -1 -10 5 -10 6 0 9 -4 5 -9 -3 -5 -1 -12 5 -16 6
-4 8 -10 5 -15 -3 -4 6 -3 19 3 13 7 22 16 19 21 -4 5 1 6 12 2 11 -4 22 -1
27 6 7 10 11 9 22 -4 7 -10 15 -16 17 -14 2 2 10 -2 16 -9 10 -11 10 -17 -3
-29 -19 -20 -7 -20 26 -1 35 20 42 18 35 -7 -7 -23 -7 -23 9 -3 8 11 16 26 16
33 0 6 4 12 9 12 12 0 9 -33 -4 -42 -6 -5 -5 -8 3 -8 7 0 10 -5 6 -11 -5 -8
-1 -8 14 0 17 9 23 8 31 -6 9 -15 10 -15 11 -2 0 8 -5 20 -12 27 -9 9 -5 12
20 12 29 0 31 -2 22 -25 -12 -32 -7 -31 29 4 17 16 39 32 50 36 18 5 21 2 19
-20 -2 -22 -7 -26 -25 -22 -18 3 -21 1 -12 -9 6 -7 18 -10 26 -7 11 4 14 2 9
-5 -4 -7 -1 -12 8 -12 8 0 17 8 19 18 4 16 5 16 6 0 1 -24 18 -23 31 2 9 16
15 18 30 10 15 -8 22 -6 34 12 9 12 16 19 16 14 0 -5 6 -3 14 3 10 9 15 8 19
-4 4 -8 13 -12 20 -9 8 3 17 -2 21 -12 16 -41 -77 -92 -215 -119 -242 -48
-327 -69 -402 -101 -52 -22 -98 -34 -127 -34 -63 0 -189 28 -207 45 -18 19
-32 19 -39 0 -4 -10 -14 -13 -30 -9 -13 3 -24 2 -24 -3 0 -6 38 -89 84 -186
47 -96 96 -201 111 -232 32 -70 169 -413 222 -555 l39 -105 402 -3 402 -2 -5
102 c-2 57 -7 173 -10 258 -3 85 -12 245 -20 355 -16 227 -21 627 -9 647 5 7
7 22 5 33 -3 16 -1 17 13 6 11 -10 16 -10 16 -2 0 7 15 18 34 26 32 14 34 16
26 50 -4 20 -4 38 1 41 5 3 9 -4 9 -16 0 -13 5 -20 13 -17 6 2 11 10 9 16 -4
21 18 11 27 -11 5 -13 20 -93 35 -178 15 -85 36 -204 47 -265 47 -256 58 -328
74 -469 13 -117 33 -427 35 -528 0 -13 8 -18 30 -18 18 0 33 -6 36 -15 5 -13
67 -15 470 -15 l464 0 0 3200 0 3200 -3200 0 -3200 0 0 -1110z m4658 289 c-3
-8 -7 -3 -11 10 -4 17 -3 21 5 13 5 -5 8 -16 6 -23z m-4463 -67 c0 -18 -20
-15 -23 4 -3 10 1 15 10 12 7 -3 13 -10 13 -16z m4372 -58 c-3 -3 -12 -4 -19
-1 -8 3 -5 6 6 6 11 1 17 -2 13 -5z m1103 -105 c23 -34 39 -63 36 -67 -3 -3
-7 -3 -9 -1 -7 10 -55 86 -71 113 -32 51 1 18 44 -45z m-851 -93 c-3 -3 -11 5
-18 17 -13 21 -12 21 5 5 10 -10 16 -20 13 -22z m-894 -61 c5 -28 4 -29 -10
-11 -8 11 -15 38 -14 60 1 41 1 41 10 11 5 -16 11 -43 14 -60z m1655 60 c0 -8
-2 -15 -4 -15 -2 0 -6 7 -10 15 -3 8 -1 15 4 15 6 0 10 -7 10 -15z m110 -11
c0 -8 -4 -14 -10 -14 -5 0 -10 9 -10 21 0 11 5 17 10 14 6 -3 10 -13 10 -21z
m54 -14 c15 -23 24 -45 21 -51 -4 -5 -8 -32 -10 -60 -2 -37 1 -47 9 -39 6 6
10 29 10 51 -2 55 12 40 67 -71 16 -33 23 -69 27 -137 2 -55 1 -93 -5 -93 -5
0 -8 14 -5 30 2 17 2 30 0 30 -3 0 -17 -14 -32 -31 -23 -26 -25 -30 -8 -25 13
4 22 1 25 -8 4 -10 1 -13 -7 -10 -19 7 -32 -16 -15 -26 7 -5 21 -4 30 1 31 16
33 10 8 -17 l-24 -27 25 13 c24 12 24 12 9 -6 -21 -25 -14 -47 10 -34 15 8 18
5 17 -13 -1 -16 -7 -21 -20 -19 -17 3 -18 2 -3 -12 19 -19 33 -20 41 -3 4 6 4
2 2 -10 -2 -13 0 -23 5 -23 5 0 9 -7 9 -16 0 -8 -4 -12 -10 -9 -11 7 -50 -12
-50 -25 0 -10 117 -70 137 -70 8 0 11 -4 8 -10 -10 -17 -165 10 -165 29 0 4
-7 8 -15 8 -25 0 -17 -12 44 -66 58 -49 126 -150 119 -172 -2 -6 -14 9 -27 34
-23 44 -92 127 -106 127 -4 0 -3 -6 2 -12 6 -7 33 -42 62 -77 28 -36 51 -71
51 -78 0 -7 4 -13 8 -13 10 0 8 -56 -3 -83 -4 -9 0 -35 9 -57 21 -54 20 -62
-4 -22 -28 46 -33 40 -9 -14 23 -56 20 -67 -6 -19 -25 49 -40 44 -15 -5 21
-40 27 -67 10 -40 -8 12 -10 12 -11 -5 l0 -20 -9 20 c-5 13 -8 -4 -7 -48 0
-44 -4 -71 -12 -76 -7 -4 -21 -34 -31 -67 -10 -32 -19 -54 -19 -48 -1 7 -10
14 -21 17 -22 6 -30 -11 -28 -61 1 -19 -4 -37 -9 -40 -6 -4 -13 -16 -15 -27
-2 -11 -9 -19 -16 -18 -6 2 -9 -4 -6 -12 4 -8 1 -15 -6 -15 -7 0 -10 -7 -6
-15 3 -8 1 -15 -5 -15 -11 0 -4 109 11 160 5 17 5 43 0 59 -4 16 -5 32 -2 36
4 3 0 10 -8 16 -13 8 -13 10 -1 18 10 7 7 9 -12 8 -15 -1 -27 -6 -28 -12 -3
-70 -10 -126 -18 -151 -7 -25 -5 -38 10 -60 26 -39 24 -44 -14 -39 -27 4 -33
1 -33 -15 0 -11 6 -20 13 -20 14 0 18 -16 5 -22 -5 -1 -6 -13 -3 -26 l6 -23
24 22 c15 14 20 24 13 27 -7 2 -10 8 -7 12 3 5 12 7 19 4 9 -4 13 -18 10 -42
-6 -64 -16 -102 -27 -102 -6 0 -8 -19 -4 -50 3 -28 3 -49 -1 -46 -4 2 -7 -25
-8 -61 0 -40 -5 -67 -13 -72 -13 -8 -18 -61 -8 -79 4 -5 0 -12 -7 -15 -8 -3
-17 -27 -21 -54 -4 -26 -13 -70 -21 -97 -10 -37 -11 -53 -3 -63 7 -7 9 -17 5
-20 -4 -4 -11 -1 -16 7 -8 12 -10 9 -11 -10 -1 -14 0 -33 1 -44 1 -10 -4 -22
-11 -26 -7 -5 -13 -16 -14 -27 -1 -10 -10 -36 -19 -57 -10 -22 -15 -49 -11
-63 4 -16 2 -22 -5 -18 -14 9 -12 -5 5 -35 21 -36 18 -49 -5 -21 -24 28 -27
15 -4 -18 12 -17 13 -26 5 -34 -8 -8 -11 -6 -11 7 0 10 -5 14 -11 10 -6 -3 -9
-15 -6 -25 3 -11 1 -19 -4 -19 -5 0 -9 5 -9 10 0 6 -3 10 -7 10 -13 0 -9 -73
3 -77 7 -2 10 6 6 23 -4 22 -2 26 12 21 11 -4 16 -1 17 11 1 16 2 16 6 0 2
-10 9 -18 14 -18 6 0 7 9 4 20 -4 11 -2 20 4 20 6 0 11 -11 11 -24 0 -14 5
-28 10 -31 6 -3 10 -11 10 -17 0 -7 -6 -6 -15 2 -13 11 -15 6 -15 -34 0 -27
-5 -46 -11 -46 -7 0 -10 15 -7 39 2 22 -2 43 -9 50 -10 9 -13 7 -13 -11 0 -45
-14 -47 -40 -7 -27 44 -35 48 -43 18 -4 -15 -2 -19 9 -15 9 3 12 1 9 -4 -3 -6
-3 -15 1 -21 5 -8 9 -7 14 1 5 8 7 3 7 -13 l-2 -26 -26 25 c-36 34 -46 30 -15
-7 14 -17 26 -34 27 -37 0 -4 2 -24 5 -44 3 -28 1 -36 -8 -33 -7 3 -14 22 -15
42 -1 25 -10 45 -29 62 l-26 26 12 -25 c7 -14 18 -28 24 -32 7 -5 4 -8 -6 -8
-10 0 -18 5 -18 10 0 6 -4 10 -10 10 -23 0 -13 -21 42 -82 15 -17 25 -35 22
-39 -3 -5 -14 1 -25 13 l-19 23 4 -45 5 -45 -14 30 c-8 17 -11 39 -8 50 3 11
2 17 -3 12 -4 -4 -8 -48 -8 -99 -1 -57 -5 -93 -12 -95 -8 -3 -10 10 -6 39 8
69 5 144 -8 168 -6 12 -14 19 -17 17 -2 -3 0 -15 7 -26 12 -23 2 -28 -20 -9
-12 11 -12 10 -1 -4 7 -9 10 -22 6 -27 -3 -6 -1 -20 6 -32 6 -13 7 -19 1 -15
-18 11 -22 -9 -6 -38 7 -16 14 -36 13 -45 -1 -34 -38 70 -37 106 1 21 0 56 -2
78 -2 34 -3 36 -9 15 -6 -21 -9 -22 -17 -9 -10 17 -54 49 -67 49 -4 0 -3 -9 3
-20 6 -12 9 -28 6 -38 -15 -57 -15 -71 0 -86 14 -15 14 -16 -1 -16 -17 0 -17
-9 0 -55 7 -16 6 -18 -6 -8 -17 17 -37 17 -21 1 17 -17 15 -33 -2 -19 -10 9
-17 6 -30 -13 -9 -14 -16 -35 -16 -48 0 -21 -1 -21 -14 -3 -12 16 -14 13 -20
-36 -7 -53 -8 -53 -21 -29 -8 14 -14 19 -15 12 0 -9 -5 -10 -19 -3 -14 8 -19
7 -18 -2 1 -32 -4 -48 -13 -42 -6 4 -10 -8 -11 -27 -1 -18 -3 -26 -6 -17 -2
10 -14 20 -26 23 -22 6 -22 6 3 21 14 8 19 14 13 15 -7 0 -22 -9 -33 -20 -19
-19 -25 -17 -20 5 1 6 -2 7 -6 3 -4 -4 -13 -3 -21 4 -11 8 -12 7 -7 -6 3 -9 1
-16 -5 -16 -6 0 -11 -9 -11 -20 0 -11 -4 -20 -10 -20 -5 0 -10 15 -10 34 0 36
-12 52 -30 41 -6 -4 -4 -12 5 -21 24 -24 17 -36 -10 -18 -14 9 -26 26 -26 38
-1 17 -2 17 -6 4 -4 -16 -6 -16 -19 -4 -8 8 -11 21 -8 29 3 8 0 18 -6 22 -8 5
-9 10 -2 14 7 4 8 12 2 21 -8 13 -10 12 -10 -2 0 -10 -7 -18 -15 -18 -8 0 -15
7 -15 16 0 8 5 12 10 9 6 -3 10 -1 10 4 0 6 -7 11 -15 11 -8 0 -15 5 -15 11 0
5 5 7 10 4 6 -3 10 -1 10 6 0 6 -8 9 -20 6 -15 -4 -20 0 -20 15 0 10 -4 17 -9
13 -6 -3 -4 -24 4 -53 9 -30 11 -50 5 -56 -7 -7 -10 -3 -10 10 -1 20 -29 77
-30 58 0 -5 -9 -20 -20 -32 -12 -12 -18 -22 -15 -22 4 0 -10 -16 -30 -35 -20
-20 -33 -40 -29 -47 5 -7 3 -8 -5 -3 -8 4 -11 21 -9 40 3 24 0 31 -9 28 -10
-4 -11 4 -7 28 4 26 3 30 -5 19 -10 -13 -11 -13 -11 0 0 8 -11 -2 -23 -22 -23
-36 -23 -37 -37 -15 -10 17 -14 19 -18 7 -7 -21 -42 -65 -42 -52 0 6 5 14 10
17 15 9 12 25 -4 19 -8 -3 -17 0 -21 5 -3 6 -11 9 -16 6 -5 -4 -12 1 -15 9 -8
21 -21 20 -28 -1 -3 -10 -4 -6 -2 10 4 30 2 31 -23 18 -14 -8 -17 -5 -19 17
-1 15 -9 33 -18 42 -14 14 -15 12 -10 -15 l6 -30 -11 30 c-17 43 -27 54 -49
48 -15 -4 -20 0 -20 16 0 11 -3 20 -7 19 -13 -5 -50 37 -45 50 2 7 -1 12 -7
12 -6 0 -11 7 -11 16 0 8 -4 13 -9 9 -5 -3 -13 0 -17 6 -4 7 4 20 19 31 15 11
27 29 27 40 0 11 8 22 19 25 11 3 22 15 25 26 7 27 55 87 56 70 0 -7 -4 -13
-10 -13 -5 0 -10 -6 -10 -14 0 -8 -6 -21 -14 -29 -13 -13 -10 -14 24 -13 23 0
46 -6 57 -17 11 -9 22 -17 25 -17 10 0 17 40 8 45 -15 9 -3 40 14 37 26 -5 56
16 50 36 -5 14 -4 14 4 2 9 -12 14 -11 34 5 17 14 15 11 -4 -11 -16 -16 -28
-38 -28 -48 0 -9 -3 -15 -8 -12 -20 12 -56 -41 -46 -69 7 -17 44 -21 44 -5 0
20 16 9 29 -21 14 -31 36 -47 49 -34 4 3 -1 11 -11 16 -23 13 -21 22 8 35 18
9 24 9 22 1 -2 -14 38 -21 61 -12 14 6 13 8 -7 16 -19 8 -21 12 -11 24 7 9 10
18 7 22 -4 3 -9 -1 -12 -8 -6 -16 -30 -17 -82 -5 -36 8 -42 28 -18 52 16 16
19 12 15 -21 -1 -17 3 -15 30 13 18 17 39 32 48 32 8 0 20 7 27 17 10 13 11
11 7 -18 -4 -30 -2 -32 9 -17 8 9 23 18 34 20 11 2 19 10 17 19 -1 8 14 34 34
58 40 46 38 71 -2 28 -32 -35 -42 -35 -14 0 13 17 17 29 10 33 -6 3 11 22 37
40 27 19 50 38 51 42 2 4 12 8 23 8 23 0 23 0 4 47 -9 21 -24 44 -35 51 -16
10 -18 9 -14 -3 5 -12 -3 -15 -34 -15 -53 0 -62 -16 -14 -26 20 -4 40 -7 43
-6 4 1 9 -8 12 -18 4 -14 0 -20 -12 -20 -10 0 -36 -9 -59 -20 -22 -11 -48 -20
-57 -20 -8 0 -15 -5 -15 -11 0 -6 -8 -9 -17 -7 -10 2 -46 -11 -80 -29 -51 -27
-62 -30 -67 -17 -4 11 -10 12 -25 4 -11 -5 -27 -10 -36 -10 -9 0 -35 -9 -57
-20 -23 -11 -43 -18 -46 -16 -2 3 -15 1 -28 -4 -19 -8 -22 -6 -17 8 5 13 0 11
-19 -6 -18 -17 -27 -20 -30 -11 -3 9 -17 1 -39 -21 -54 -54 -79 -71 -91 -64
-5 4 -15 0 -20 -7 -7 -10 -8 -9 -3 6 4 11 8 27 9 35 0 8 6 18 11 22 6 5 -5 5
-23 2 -31 -6 -33 -5 -30 17 2 16 -1 23 -11 21 -7 -1 -19 3 -27 9 -8 6 -14 7
-14 2 0 -5 -7 -18 -16 -29 -15 -18 -15 -18 -9 10 6 27 5 28 -11 15 -15 -12
-15 -10 2 16 10 17 23 33 29 37 6 5 6 11 -3 20 -9 9 -12 9 -12 0 0 -7 -13 -12
-28 -12 -25 0 -28 3 -26 31 1 17 -4 42 -12 57 -9 19 -10 30 -2 39 13 16 4 17
-23 3 -16 -9 -19 -7 -19 10 0 11 -6 23 -14 26 -8 3 -17 12 -20 20 -3 8 -2 13
3 10 13 -8 23 25 12 38 -6 7 -11 32 -12 56 -1 25 -8 54 -16 65 -7 11 -13 41
-13 68 0 27 -5 57 -11 68 -5 11 -13 41 -16 67 -3 26 -9 54 -13 62 -13 25 -14
73 -1 103 14 35 14 47 0 47 -6 0 -9 14 -6 33 3 26 8 33 33 37 22 4 30 12 35
35 4 17 7 26 8 20 1 -5 8 1 16 15 9 15 14 19 15 10 0 -13 2 -13 10 0 8 12 11
12 28 -3 10 -9 21 -15 23 -12 3 2 19 1 37 -4 21 -7 32 -6 35 2 2 6 16 11 30 9
15 -1 27 3 27 8 0 6 -10 10 -21 10 -21 0 -21 1 3 23 14 13 33 36 43 50 19 29
38 37 29 12 -8 -19 19 -20 35 -1 19 23 61 29 75 12 8 -12 19 -14 41 -8 33 9
83 -3 154 -38 36 -18 65 -23 156 -24 l112 -3 0 29 c0 17 -6 28 -14 28 -7 0
-13 4 -13 10 0 5 6 8 13 7 6 -2 2 1 -10 7 -13 5 -23 13 -23 18 0 4 -18 11 -40
14 -22 4 -40 10 -40 15 0 5 -29 9 -65 9 -62 0 -115 14 -115 32 0 12 -76 10
-106 -4 -22 -10 -28 -10 -32 0 -2 6 -13 12 -25 13 -15 0 -9 5 18 14 l40 14
-55 -4 c-161 -14 -160 -14 -160 1 0 8 -5 14 -11 14 -7 0 -9 10 -5 25 5 21 3
25 -14 25 -11 0 -23 7 -26 15 -8 20 -30 19 -38 -1 -4 -10 -14 -14 -26 -11 -14
3 -30 -9 -62 -45 -24 -28 -42 -54 -41 -58 1 -5 -4 -11 -13 -14 -9 -4 -18 3
-24 20 -13 33 -13 33 5 50 8 9 15 33 15 55 0 21 4 39 8 39 5 0 15 12 22 28 9
20 14 23 19 12 18 -44 63 -86 47 -45 -9 24 11 65 33 65 27 0 45 26 47 68 1 21
9 51 18 67 25 47 21 65 -13 65 -16 0 -31 -3 -34 -7 -2 -5 -3 -3 -1 2 1 6 -4
19 -12 30 -13 18 -14 18 -36 -1 l-23 -19 18 22 c24 28 15 72 -10 51 -14 -12
-15 -11 -5 9 7 12 12 27 12 34 0 12 -14 -3 -90 -91 -20 -23 -21 -24 -15 -3 3
12 8 31 10 43 2 12 21 37 40 56 33 31 36 37 26 62 -9 27 -10 27 -16 5 -4 -13
-14 -23 -22 -23 -11 0 -14 -7 -9 -27 3 -16 3 -22 0 -15 -5 10 -9 10 -20 1 -25
-20 -16 13 16 64 41 64 38 79 -6 31 -31 -34 -35 -36 -29 -14 9 30 40 72 48 64
3 -3 3 4 0 16 -5 17 -2 21 13 18 12 -2 18 2 16 10 -1 8 1 11 5 9 5 -3 16 6 26
19 10 13 13 24 7 24 -6 0 -13 -6 -16 -14 -3 -8 -16 -17 -30 -20 -13 -4 -24
-11 -24 -16 0 -5 -6 -7 -14 -4 -9 3 -26 -15 -50 -53 -19 -32 -36 -53 -36 -48
0 6 11 27 25 48 14 20 22 37 18 37 -4 0 7 10 25 22 22 13 29 23 22 28 -8 5 -7
9 5 13 9 4 13 3 10 -3 -10 -17 11 -11 38 10 14 11 30 20 35 20 5 0 15 7 22 15
12 15 0 22 -14 8 -4 -5 -11 -8 -14 -8 -4 -1 -17 -6 -29 -13 -19 -11 -22 -10
-17 3 4 8 9 15 13 15 19 0 115 89 106 98 -3 3 -11 0 -17 -6 -12 -12 -48 -17
-48 -6 0 13 46 54 61 54 9 0 23 10 32 23 20 31 68 77 79 77 5 0 -7 -16 -27
-36 -21 -20 -34 -41 -31 -50 3 -8 2 -14 -3 -14 -5 0 -11 -9 -14 -20 -6 -23 11
-27 19 -5 4 8 14 15 23 15 10 0 26 15 36 34 10 18 26 38 37 45 17 11 17 10 6
-11 -7 -13 -17 -26 -22 -29 -4 -4 -3 -10 3 -13 6 -4 11 -3 11 3 0 5 16 15 36
21 20 7 45 23 57 36 11 13 27 24 34 24 21 0 15 28 -7 35 -11 3 -20 10 -20 15
0 10 33 0 71 -20 13 -7 19 -7 19 0 0 5 10 10 23 10 21 1 21 1 3 12 -31 18 -95
21 -140 8 -60 -18 -199 -62 -215 -68 -9 -3 -12 -1 -7 6 15 25 148 71 185 63 7
-1 20 0 29 4 12 5 6 11 -23 24 -22 10 -46 25 -54 34 -10 13 2 10 44 -9 32 -15
81 -28 109 -30 28 -2 71 -8 95 -14 24 -6 57 -8 73 -5 24 6 28 4 28 -17 1 -21
2 -21 11 -5 8 14 14 16 25 6 8 -6 14 -19 14 -28 0 -12 5 -10 20 9 19 24 20 24
20 4 0 -17 5 -20 25 -16 15 2 22 9 18 16 -4 6 5 3 20 -6 29 -20 67 -24 67 -8
0 6 6 5 14 -2 7 -7 11 -19 9 -25 -6 -16 13 -17 22 -2 4 5 12 8 18 6 7 -2 20 0
31 5 13 7 16 7 12 -1 -15 -24 6 -31 35 -11 16 12 29 17 29 11 0 -5 -4 -13 -10
-16 -5 -3 -10 -10 -10 -15 0 -17 25 0 43 28 13 21 17 23 17 9 0 -14 5 -17 23
-11 l22 7 -20 -23 -20 -23 29 5 28 6 -28 -23 -29 -23 56 -1 c36 0 69 6 92 18
36 18 36 18 26 -1 -6 -11 -8 -22 -5 -26 11 -10 45 -9 39 1 -4 6 1 8 11 4 10
-4 19 -1 22 7 3 8 12 17 20 20 10 4 12 2 8 -6 -5 -8 3 -9 29 -5 28 4 35 3 30
-9 -3 -8 1 -14 10 -14 8 0 18 6 20 13 3 6 6 3 6 -9 1 -27 22 -25 89 9 47 24
51 24 42 7 -6 -11 -16 -20 -22 -20 -6 0 -9 -2 -6 -5 3 -3 22 2 41 12 47 23 69
82 62 162 l-4 56 10 -50 c6 -27 12 -51 14 -53 2 -2 14 3 26 12 33 23 54 3 32
-30 -9 -14 -13 -27 -11 -30 9 -8 78 109 78 132 0 8 6 11 15 8 11 -5 15 1 15
17 0 19 -2 21 -10 9 -17 -26 -10 3 8 38 l18 33 1 -33 c3 -107 23 -188 23 -95
0 26 4 47 9 47 11 0 23 36 25 75 0 17 5 37 10 45 8 13 7 13 -6 2 -9 -8 -19
-23 -21 -35 -2 -12 -4 4 -4 36 0 56 0 57 18 36 10 -11 23 -18 29 -14 8 5 9 -4
5 -29 -8 -43 6 -48 22 -8 l11 27 -1 -35 c-1 -19 -9 -40 -17 -47 -13 -10 -12
-11 6 -7 26 7 42 63 34 122 -4 23 -2 42 3 42 5 0 2 11 -7 25 -15 22 -21 45
-12 45 2 0 15 -18 30 -40z m-157 -22 c-3 -8 -6 -5 -6 6 -1 11 2 17 5 13 3 -3
4 -12 1 -19z m10 -70 c-3 -7 -5 -2 -5 12 0 14 2 19 5 13 2 -7 2 -19 0 -25z
m-1664 2 c3 -11 1 -18 -4 -14 -5 3 -9 12 -9 20 0 20 7 17 13 -6z m334 4 c-3
-3 -12 -4 -19 -1 -8 3 -5 6 6 6 11 1 17 -2 13 -5z m46 -11 c-7 -2 -19 -2 -25
0 -7 3 -2 5 12 5 14 0 19 -2 13 -5z m288 -30 c-12 -20 -14 -14 -5 12 4 9 9 14
11 11 3 -2 0 -13 -6 -23z m919 -88 c-7 -30 -16 -55 -20 -55 -4 0 -5 -15 -4
-32 l3 -33 -8 30 c-5 19 -3 39 5 55 7 14 15 43 19 63 4 21 10 35 13 33 3 -3
-1 -31 -8 -61z m-1485 15 c3 -6 -1 -7 -9 -4 -18 7 -21 14 -7 14 6 0 13 -4 16
-10z m102 -53 c3 -4 0 -7 -7 -7 -12 0 -80 38 -80 45 0 5 78 -30 87 -38z m38
-15 c-3 -3 -11 0 -18 7 -9 10 -8 11 6 5 10 -3 15 -9 12 -12z m335 -62 c0 -11
-4 -20 -9 -20 -5 0 -7 9 -4 20 3 11 7 20 9 20 2 0 4 -9 4 -20z m-610 -14 c0
-3 -4 -8 -10 -11 -5 -3 -10 -1 -10 4 0 6 5 11 10 11 6 0 10 -2 10 -4z m223 -3
c-7 -2 -19 -2 -25 0 -7 3 -2 5 12 5 14 0 19 -2 13 -5z m1124 -65 c-3 -8 -6 -5
-6 6 -1 11 2 17 5 13 3 -3 4 -12 1 -19z m119 -15 c-10 -10 -19 5 -10 18 6 11
8 11 12 0 2 -7 1 -15 -2 -18z m-1569 11 c-3 -3 -12 -4 -19 -1 -8 3 -5 6 6 6
11 1 17 -2 13 -5z m1493 -19 c-7 -8 -20 -15 -29 -15 -11 1 -8 5 9 15 32 18 35
18 20 0z m625 -24 c-8 -17 -18 -31 -21 -31 -3 0 -3 4 0 9 3 4 10 21 16 36 6
15 13 25 16 22 3 -3 -2 -19 -11 -36z m-2065 18 c0 -3 -14 -9 -32 -11 -26 -4
-28 -3 -15 7 18 13 47 16 47 4z m-76 -14 c-5 -12 4 -15 42 -16 l49 -1 -40 -8
c-30 -6 -48 -3 -73 10 l-34 18 29 5 c15 2 29 5 30 6 1 0 0 -6 -3 -14z m46 -56
c5 9 10 10 14 2 4 -6 2 -11 -3 -11 -6 0 -10 -5 -8 -11 5 -24 -20 -18 -32 7
-11 25 -11 26 4 14 13 -11 18 -11 25 -1z m-125 -68 c-6 -5 -26 -12 -45 -15
-35 -7 -35 -7 -10 8 27 17 70 22 55 7z m52 -32 c-9 -6 -14 -15 -11 -21 4 -6 0
-14 -7 -19 -19 -12 -32 -11 -24 1 10 16 -3 12 -46 -16 -23 -14 -39 -20 -37
-14 4 12 116 79 133 79 6 0 2 -4 -8 -10z m31 -9 c-7 -11 -17 -20 -22 -20 -5 0
-1 9 9 20 10 11 20 20 22 20 2 0 -2 -9 -9 -20z m-31 -125 c-4 -8 -11 -15 -17
-15 -7 0 -7 6 0 21 13 23 26 19 17 -6z m2474 -55 c5 0 9 -4 9 -10 0 -6 -25 -9
-57 -9 -32 1 -47 4 -33 6 14 3 29 9 35 14 5 5 16 7 23 4 8 -3 18 -5 23 -5z
m-2530 -34 c-14 -36 -22 -33 -9 5 6 16 12 28 14 26 3 -2 0 -16 -5 -31z m-331
-86 c0 -5 -7 -10 -16 -10 -8 0 -12 5 -9 10 3 6 10 10 16 10 5 0 9 -4 9 -10z
m356 -56 c-4 -9 -9 -15 -11 -12 -3 3 -3 13 1 22 4 9 9 15 11 12 3 -3 3 -13 -1
-22z m-846 -9 c7 -9 10 -19 6 -22 -8 -9 -38 9 -44 25 -5 17 23 15 38 -3z m970
11 c0 -2 -8 -10 -17 -17 -16 -13 -17 -12 -4 4 13 16 21 21 21 13z m-50 -81 c0
-5 -5 -3 -10 5 -5 8 -10 20 -10 25 0 6 5 3 10 -5 5 -8 10 -19 10 -25z m-1205
-26 c10 -15 -1 -23 -20 -15 -9 3 -13 10 -10 16 8 13 22 13 30 -1z m115 -4 c0
-8 -4 -15 -10 -15 -5 0 -10 7 -10 15 0 8 5 15 10 15 6 0 10 -7 10 -15z m1057
-3 c-10 -10 -14 -21 -11 -25 4 -3 -1 -14 -10 -23 -9 -9 -20 -14 -23 -11 -8 8
36 77 49 77 6 0 4 -8 -5 -18z m130 -4 c-3 -8 -6 -5 -6 6 -1 11 2 17 5 13 3 -3
4 -12 1 -19z m-3594 -2 c3 -11 -30 -32 -38 -25 -3 4 -3 14 1 23 7 17 33 19 37
2z m3587 -23 c0 -5 -5 -15 -10 -23 -8 -12 -10 -11 -10 8 0 12 5 22 10 22 6 0
10 -3 10 -7z m-3543 -39 c10 -25 -13 -39 -42 -26 -27 12 -32 31 -13 50 13 13
46 -1 55 -24z m209 -3 c-9 -13 -46 -15 -46 -1 0 14 34 30 44 20 4 -4 5 -13 2
-19z m1874 8 c0 -5 -4 -9 -10 -9 -5 0 -10 7 -10 16 0 8 5 12 10 9 6 -3 10 -10
10 -16z m135 -9 c3 -5 -1 -10 -9 -10 -9 0 -16 5 -16 10 0 6 4 10 9 10 6 0 13
-4 16 -10z m-240 -10 c3 -5 -1 -10 -10 -10 -9 0 -13 5 -10 10 3 6 8 10 10 10
2 0 7 -4 10 -10z m1395 -20 c0 -5 -5 -10 -11 -10 -5 0 -7 5 -4 10 3 6 8 10 11
10 2 0 4 -4 4 -10z m-2900 -20 c0 -5 -2 -10 -4 -10 -3 0 -8 5 -11 10 -3 6 -1
10 4 10 6 0 11 -4 11 -10z m185 -30 c-5 -8 -11 -8 -17 -2 -6 6 -7 16 -3 22 5
8 11 8 17 2 6 -6 7 -16 3 -22z m4865 -190 c0 -5 -2 -10 -4 -10 -3 0 -8 5 -11
10 -3 6 -1 10 4 10 6 0 11 -4 11 -10z m-2419 -10 c0 -3 2 -14 4 -24 2 -11 -2
-24 -9 -30 -9 -7 -11 -20 -6 -36 5 -14 8 -19 9 -12 1 18 21 15 28 -5 4 -10 18
-33 30 -52 23 -34 24 -51 6 -115 -3 -11 -1 -16 5 -12 18 11 24 -13 12 -49 -9
-27 -18 -36 -44 -40 -28 -6 -34 -12 -44 -52 -14 -52 -10 -63 13 -39 9 9 20 16
24 16 4 0 8 -35 9 -79 2 -65 0 -80 -14 -85 -12 -4 -15 -2 -10 9 3 8 1 15 -4
15 -6 0 -10 -8 -11 -17 0 -13 -3 -11 -10 7 -6 14 -9 38 -6 53 2 16 -2 51 -10
80 -15 61 -17 133 -3 142 6 3 9 18 9 33 -1 27 -1 27 -8 -3 -3 -16 -9 -25 -13
-20 -9 15 -37 179 -43 255 -5 56 -4 61 10 47 8 -9 15 -20 15 -26 0 -6 5 -11
10 -11 10 0 14 13 11 42 -2 11 5 16 18 15 12 -1 21 -4 22 -7z m842 -27 c-7 -2
-19 -2 -25 0 -7 3 -2 5 12 5 14 0 19 -2 13 -5z m1784 1 c19 -5 21 -12 20 -55
l-2 -49 -62 0 -63 0 1 33 c1 29 2 29 8 8 10 -37 31 -38 31 -2 0 29 3 31 38 32
34 2 33 2 -13 9 -27 4 -53 5 -57 3 -5 -2 -8 0 -8 6 0 5 15 12 33 14 17 2 37 4
42 5 6 1 20 -1 32 -4z m-1799 -20 c35 -10 26 -20 -13 -16 -19 2 -35 8 -35 13
0 10 16 11 48 3z m-85 -11 c-7 -2 -19 -2 -25 0 -7 3 -2 5 12 5 14 0 19 -2 13
-5z m-572 -59 c-5 -16 -10 -21 -10 -12 -1 18 10 51 15 45 2 -1 -1 -16 -5 -33z
m2614 6 c3 -5 -1 -10 -9 -10 -9 0 -16 5 -16 10 0 6 4 10 9 10 6 0 13 -4 16
-10z m-2628 -87 c-3 -10 -5 -2 -5 17 0 19 2 27 5 18 2 -10 2 -26 0 -35z m308
7 c-3 -5 -11 -10 -16 -10 -6 0 -7 5 -4 10 3 6 11 10 16 10 6 0 7 -4 4 -10z
m-438 -512 c-3 -8 -6 -5 -6 6 -1 11 2 17 5 13 3 -3 4 -12 1 -19z m-2313 -4
c20 -53 -2 -67 -95 -62 -53 3 -54 4 -54 33 0 27 4 31 40 36 75 11 103 10 109
-7z m4490 -230 c3 -8 2 -12 -4 -9 -6 3 -10 10 -10 16 0 14 7 11 14 -7z m-4034
-149 c-7 -9 -15 -13 -17 -11 -7 7 7 26 19 26 6 0 6 -6 -2 -15z m3034 -4 c3 -5
-1 -11 -9 -14 -9 -4 -12 -1 -8 9 6 16 10 17 17 5z m-3204 -100 c0 -14 -18 -23
-30 -16 -6 4 -8 11 -5 16 8 12 35 12 35 0z m2802 -23 c-7 -7 -12 -8 -12 -2 0
6 3 14 7 17 3 4 9 5 12 2 2 -3 -1 -11 -7 -17z m87 -22 c-14 -6 -35 -18 -45
-26 -18 -14 -18 -14 -4 5 20 27 26 31 52 32 22 1 22 0 -3 -11z m-2908 -9 c-1
-12 -15 -9 -19 4 -3 6 1 10 8 8 6 -3 11 -8 11 -12z m2587 -8 c-2 -6 -8 -10
-13 -10 -5 0 -11 4 -13 10 -2 6 4 11 13 11 9 0 15 -5 13 -11z m79 -46 c-9 -9
-19 -14 -23 -11 -10 10 6 28 24 28 15 0 15 -1 -1 -17z m103 13 c0 -2 -8 -10
-17 -17 -16 -13 -17 -12 -4 4 13 16 21 21 21 13z m130 -16 c0 -5 -4 -10 -10
-10 -5 0 -10 5 -10 10 0 6 5 10 10 10 6 0 10 -4 10 -10z m-159 -43 c-10 -9
-11 -8 -5 6 3 10 9 15 12 12 3 -3 0 -11 -7 -18z m1454 -54 c1 -30 1 -34 -2
-10 -2 20 -8 37 -14 37 -5 0 -9 10 -9 22 0 44 23 0 25 -49z m12 45 c-3 -8 -6
-5 -6 6 -1 11 2 17 5 13 3 -3 4 -12 1 -19z m-4164 -15 c-7 -3 -13 -10 -13 -17
0 -8 -14 -13 -35 -14 -19 -1 -35 3 -35 7 0 10 82 40 90 33 3 -3 -1 -7 -7 -9z
m67 -24 c0 -11 -27 -12 -34 0 -3 4 -3 11 0 14 8 8 34 -3 34 -14z m120 -29 c0
-5 -2 -10 -4 -10 -3 0 -8 5 -11 10 -3 6 -1 10 4 10 6 0 11 -4 11 -10z m3876
-14 c0 -14 -5 -21 -9 -17 -4 4 -5 15 -1 24 9 24 12 21 10 -7z m-1439 -18 c-3
-8 -6 -5 -6 6 -1 11 2 17 5 13 3 -3 4 -12 1 -19z m-2162 -18 c3 -5 -1 -10 -9
-10 -9 0 -16 5 -16 10 0 6 4 10 9 10 6 0 13 -4 16 -10z m3643 -25 c-3 -3 -9 2
-12 12 -6 14 -5 15 5 6 7 -7 10 -15 7 -18z m-46 -64 c-7 -20 -7 -31 -1 -31 6
0 6 -7 1 -17 -5 -10 -7 -24 -5 -30 6 -15 -13 -17 -22 -3 -4 6 -10 8 -14 5 -5
-2 -6 8 -3 23 l6 27 7 -25 c5 -18 7 -11 8 28 1 33 5 51 11 47 6 -3 10 -1 10 6
0 7 3 10 6 6 4 -3 2 -20 -4 -36z m-35 4 c0 -8 -4 -12 -9 -9 -5 3 -6 10 -3 15
9 13 12 11 12 -6z m-1865 -7 c-9 -9 -8 -16 5 -30 15 -17 15 -20 3 -28 -20 -13
-70 -13 -70 0 0 9 29 15 53 11 4 0 7 3 7 8 0 5 -21 7 -47 5 -42 -4 -45 -3 -25
7 12 7 22 16 22 20 0 5 6 6 14 3 8 -3 17 -1 21 5 3 6 11 11 18 11 8 0 8 -3 -1
-12z m-1865 -36 c7 -12 8 -24 2 -33 -5 -8 -9 -11 -9 -8 0 4 -18 3 -39 -1 l-40
-7 17 23 c9 13 23 24 30 24 6 0 12 5 12 10 0 16 14 12 27 -8z m-70 2 c-3 -3
-12 -4 -19 -1 -8 3 -5 6 6 6 11 1 17 -2 13 -5z m3884 -39 c-5 -5 -11 -17 -14
-25 -4 -9 -6 -4 -5 10 2 14 -1 31 -6 38 -7 11 -4 11 12 1 13 -8 18 -17 13 -24z
m-1311 12 c0 -2 -10 -12 -22 -23 l-23 -19 19 23 c18 21 26 27 26 19z m1240
-41 c0 -8 5 -16 11 -18 7 -2 7 -12 -2 -30 -13 -30 -30 -29 -22 1 3 10 0 28 -6
40 -10 17 -9 21 4 21 8 0 15 -6 15 -14z m-3507 -12 c9 -9 -16 -44 -30 -44 -16
0 -16 6 -3 31 11 19 22 24 33 13z m3435 -19 c-3 -3 -9 2 -12 12 -6 14 -5 15 5
6 7 -7 10 -15 7 -18z m129 -7 c-3 -8 -6 -5 -6 6 -1 11 2 17 5 13 3 -3 4 -12 1
-19z m-847 -29 c7 -11 9 -23 6 -27 -3 -3 -6 0 -6 8 0 9 -3 10 -14 1 -11 -10
-14 -7 -12 14 1 30 11 32 26 4z m824 -4 c-4 -8 -8 -15 -10 -15 -2 0 -4 7 -4
15 0 8 4 15 10 15 5 0 7 -7 4 -15z m39 -5 c3 -11 1 -18 -4 -14 -5 3 -9 -3 -9
-12 0 -10 -2 -15 -5 -12 -6 5 4 58 10 58 1 0 5 -9 8 -20z m-3596 -22 c-3 -8
-6 -5 -6 6 -1 11 2 17 5 13 3 -3 4 -12 1 -19z m2663 -26 c-22 -45 -36 -56 -24
-19 8 26 35 69 40 64 2 -2 -5 -22 -16 -45z m880 17 c0 -6 -4 -7 -10 -4 -5 3
-10 11 -10 16 0 6 5 7 10 4 6 -3 10 -11 10 -16z m-820 -15 c0 -8 -5 -12 -10
-9 -6 4 -8 11 -5 16 9 14 15 11 15 -7z m377 -6 c-3 -8 -6 -5 -6 6 -1 11 2 17
5 13 3 -3 4 -12 1 -19z m-267 -4 c0 -8 -4 -12 -10 -9 -5 3 -10 10 -10 16 0 5
5 9 10 9 6 0 10 -7 10 -16z m780 2 c0 -3 -4 -8 -10 -11 -5 -3 -10 -1 -10 4 0
6 5 11 10 11 6 0 10 -2 10 -4z m-619 -59 c-8 -8 -11 -7 -11 6 0 9 -5 17 -11
17 -5 0 -7 5 -4 10 4 6 12 4 22 -6 12 -11 13 -18 4 -27z m-370 -30 c-13 -13
-15 1 -4 30 7 17 8 17 11 -1 2 -10 -1 -23 -7 -29z m-1096 -27 c-1 -27 -4 -52
-7 -56 -9 -8 -22 82 -13 95 13 22 20 9 20 -39z m312 -32 c-3 -8 -6 -5 -6 6 -1
11 2 17 5 13 3 -3 4 -12 1 -19z m580 0 c-3 -8 -6 -5 -6 6 -1 11 2 17 5 13 3
-3 4 -12 1 -19z m202 -20 c0 -27 -2 -29 -8 -13 -5 11 -6 26 -4 33 8 21 13 13
12 -20z m-2709 -28 c0 -5 -16 -9 -35 -8 -19 1 -32 5 -29 10 7 11 64 10 64 -2z
m-1857 -70 c-3 -11 -9 -20 -14 -20 -10 0 -12 33 -3 43 12 12 22 -3 17 -23z
m1913 -56 c-6 -17 -116 -20 -116 -4 0 11 7 14 53 24 15 4 25 11 22 16 -3 6
-16 5 -30 -2 -14 -6 -28 -8 -32 -4 -11 10 18 26 48 26 15 0 33 8 40 17 12 15
14 12 17 -21 2 -21 1 -44 -2 -52z m3659 46 c3 -6 -1 -7 -9 -4 -18 7 -21 14 -7
14 6 0 13 -4 16 -10z m-5573 -45 c0 -5 -5 -11 -11 -13 -6 -2 -11 4 -11 13 0 9
5 15 11 13 6 -2 11 -8 11 -13z m5646 -4 c3 -8 -1 -12 -9 -9 -7 2 -15 10 -17
17 -3 8 1 12 9 9 7 -2 15 -10 17 -17z m142 -92 c0 -6 -4 -7 -10 -4 -5 3 -10
11 -10 16 0 6 5 7 10 4 6 -3 10 -11 10 -16z m-3590 -9 c0 -5 -5 -10 -11 -10
-5 0 -7 5 -4 10 3 6 8 10 11 10 2 0 4 -4 4 -10z m1840 -20 c0 -5 -4 -10 -10
-10 -5 0 -10 5 -10 10 0 6 5 10 10 10 6 0 10 -4 10 -10z m-1880 -40 c0 -5 -4
-10 -10 -10 -5 0 -10 5 -10 10 0 6 5 10 10 10 6 0 10 -4 10 -10z m2878 -31
c-10 -5 -19 -20 -19 -32 -1 -18 -2 -18 -6 -4 -5 20 13 47 31 47 6 0 3 -5 -6
-11z m-3458 -29 c26 0 33 -27 12 -48 -17 -17 -103 -24 -118 -10 -3 4 -12 4
-20 1 -20 -8 -17 11 5 31 22 20 70 36 89 30 8 -2 22 -4 32 -4z m421 -7 c1 -17
2 -17 6 0 5 20 19 23 25 5 3 -8 24 -11 61 -9 57 2 68 -4 45 -27 -18 -18 -8
-22 75 -24 79 -3 98 -11 50 -21 -16 -4 -35 -11 -43 -17 -13 -9 -13 -11 -1 -19
31 -20 22 -47 -20 -64 -40 -16 -40 -16 -49 9 -11 29 -32 30 -220 10 -123 -13
-155 -12 -145 4 3 5 21 6 40 3 20 -3 41 -1 49 6 8 7 20 11 28 10 7 -2 30 3 51
11 l39 15 -5 62 c-3 36 -2 63 4 63 5 0 10 -8 10 -17z m3069 -4 c0 -6 -4 -7
-10 -4 -5 3 -10 11 -10 16 0 6 5 7 10 4 6 -3 10 -11 10 -16z m-2781 -15 c3
-16 1 -17 -13 -5 -19 16 -21 34 -3 29 6 -3 14 -13 16 -24z m1973 -26 c-7 -7
-12 -8 -12 -2 0 14 12 26 19 19 2 -3 -1 -11 -7 -17z m-2642 -20 c0 -16 -3 -19
-11 -11 -6 6 -8 16 -5 22 11 17 16 13 16 -11z m3277 0 c-3 -8 -6 -5 -6 6 -1
11 2 17 5 13 3 -3 4 -12 1 -19z m-380 -17 c0 -11 -5 -18 -9 -15 -4 3 -5 11 -1
19 7 21 12 19 10 -4z m363 9 c0 -5 -4 -10 -10 -10 -5 0 -10 5 -10 10 0 6 5 10
10 10 6 0 10 -4 10 -10z m-1533 -22 c-3 -8 -6 -5 -6 6 -1 11 2 17 5 13 3 -3 4
-12 1 -19z m-973 -265 c18 -59 62 -423 51 -423 -7 0 -55 106 -60 130 -2 11 -5
71 -6 133 -1 61 -5 133 -9 160 -4 26 -3 47 1 47 4 0 14 -21 23 -47z m-1367
-15 c-3 -8 -6 -5 -6 6 -1 11 2 17 5 13 3 -3 4 -12 1 -19z m40 0 c-3 -8 -6 -5
-6 6 -1 11 2 17 5 13 3 -3 4 -12 1 -19z m1390 -235 c-3 -10 -5 -4 -5 12 0 17
2 24 5 18 2 -7 2 -21 0 -30z m10 -65 c-3 -7 -5 -2 -5 12 0 14 2 19 5 13 2 -7
2 -19 0 -25z m-1747 -258 c0 -5 -5 -10 -11 -10 -5 0 -7 5 -4 10 3 6 8 10 11
10 2 0 4 -4 4 -10z"/>
<path d="M5795 5068 c4 -18 9 -44 12 -57 4 -15 2 -22 -4 -18 -6 4 -13 -7 -16
-26 -3 -17 -9 -41 -13 -52 -6 -18 -6 -19 10 -4 9 9 18 25 19 37 1 12 7 22 14
22 15 0 11 60 -6 103 -15 37 -24 34 -16 -5z"/>
<path d="M5750 5041 c-7 -15 -7 -21 0 -21 12 0 25 28 17 36 -3 3 -10 -4 -17
-15z"/>
<path d="M5835 4943 c-4 -10 -8 -30 -9 -45 -1 -22 2 -25 11 -15 17 16 29 77
15 77 -5 0 -13 -8 -17 -17z"/>
<path d="M5791 4879 c-7 -12 -10 -23 -8 -26 3 -3 11 5 17 17 15 28 8 35 -9 9z"/>
<path d="M5740 4839 c0 -5 5 -7 10 -4 6 3 10 8 10 11 0 2 -4 4 -10 4 -5 0 -10
-5 -10 -11z"/>
<path d="M4801 4822 c-7 -13 -11 -26 -8 -28 8 -8 29 25 25 38 -3 8 -9 4 -17
-10z"/>
<path d="M3905 4730 c-3 -5 -1 -10 4 -10 6 0 11 5 11 10 0 6 -2 10 -4 10 -3 0
-8 -4 -11 -10z"/>
<path d="M3920 4690 c0 -5 5 -10 11 -10 5 0 7 5 4 10 -3 6 -8 10 -11 10 -2 0
-4 -4 -4 -10z"/>
<path d="M3895 4640 c4 -6 11 -8 16 -5 14 9 11 15 -7 15 -8 0 -12 -5 -9 -10z"/>
<path d="M5788 4633 c6 -2 18 -2 25 0 6 3 1 5 -13 5 -14 0 -19 -2 -12 -5z"/>
<path d="M3900 4595 c-20 -24 -6 -28 15 -5 10 11 13 20 8 20 -6 0 -16 -7 -23
-15z"/>
<path d="M5795 4572 c6 -5 30 -12 55 -15 34 -4 40 -3 27 4 -24 14 -95 23 -82
11z"/>
<path d="M3820 4519 c-7 -11 -10 -23 -7 -25 2 -2 9 7 15 21 14 30 7 33 -8 4z"/>
<path d="M3848 4438 c-19 -16 -31 -48 -17 -48 5 0 13 8 16 18 4 9 14 22 22 29
9 7 11 13 5 13 -5 0 -17 -6 -26 -12z"/>
<path d="M3860 4370 c-23 -23 -25 -34 -7 -49 10 -8 19 -3 37 21 19 26 20 30 5
25 -13 -5 -16 -3 -11 8 7 20 0 19 -24 -5z"/>
<path d="M3890 4310 c0 -5 5 -10 10 -10 6 0 10 5 10 10 0 6 -4 10 -10 10 -5 0
-10 -4 -10 -10z"/>
<path d="M3876 4281 c-4 -6 -3 -18 2 -27 8 -14 10 -14 15 -2 7 19 -8 44 -17
29z"/>
<path d="M5890 4020 c0 -11 4 -20 9 -20 5 0 7 9 4 20 -3 11 -7 20 -9 20 -2 0
-4 -9 -4 -20z"/>
<path d="M5881 3922 c-1 -40 3 -61 9 -57 12 7 12 59 0 95 -6 19 -8 9 -9 -38z"/>
<path d="M5860 3838 c0 -4 4 -8 9 -8 6 0 12 4 15 8 3 5 -1 9 -9 9 -8 0 -15 -4
-15 -9z"/>
<path d="M5486 3704 c-9 -8 -14 -20 -11 -24 7 -11 35 -2 35 11 0 5 12 9 26 9
14 0 23 4 19 10 -10 15 -52 12 -69 -6z"/>
<path d="M5582 3693 c2 -21 -2 -29 -16 -31 -11 -2 -26 -10 -34 -18 -16 -16
-42 -19 -42 -4 0 6 6 10 13 10 7 0 20 9 30 20 22 26 13 25 -31 -2 -20 -12 -32
-16 -28 -10 4 7 3 12 -3 12 -5 0 -18 8 -27 18 -16 15 -17 15 -12 0 6 -14 0
-16 -45 -13 -49 4 -51 4 -27 -10 22 -13 23 -14 5 -14 -11 0 -37 3 -57 8 -21 5
-36 6 -33 2 7 -12 -52 -51 -77 -51 -44 0 -3 -18 47 -20 103 -5 181 0 165 10
-15 10 -15 10 55 15 33 3 89 17 110 28 11 6 33 11 49 13 35 2 74 38 55 49 -7
5 -10 4 -5 -3 3 -6 -3 -13 -13 -17 -22 -7 -61 10 -61 25 0 6 -5 10 -11 10 -6
0 -9 -12 -7 -27z m-272 -53 c0 -5 -4 -10 -10 -10 -5 0 -10 5 -10 10 0 6 5 10
10 10 6 0 10 -4 10 -10z"/>
<path d="M4135 3560 c-27 -3 -69 -15 -92 -24 -37 -15 -43 -23 -43 -47 0 -16
-5 -29 -11 -29 -5 0 -8 -4 -5 -8 11 -18 57 -7 69 18 7 13 23 27 35 30 13 3 23
10 22 15 -1 6 12 16 29 22 28 12 30 11 36 -15 3 -15 12 -35 20 -46 28 -37 146
-15 153 29 3 18 1 18 -18 -4 -14 -16 -20 -19 -20 -8 0 11 -7 13 -22 9 -21 -5
-22 -4 -9 11 12 15 11 17 -3 17 -9 0 -16 -4 -16 -10 0 -5 -8 -10 -17 -11 -10
-1 -3 -6 15 -11 33 -11 44 -28 17 -28 -8 0 -15 5 -15 11 0 6 -8 8 -19 4 -26
-8 -51 32 -30 46 17 10 20 11 84 14 28 2 57 6 67 10 9 3 30 -1 47 -9 40 -21
48 -20 26 4 -16 18 -30 20 -134 19 -64 -1 -138 -5 -166 -9z"/>
<path d="M4468 3563 c6 -2 18 -2 25 0 6 3 1 5 -13 5 -14 0 -19 -2 -12 -5z"/>
<path d="M5711 3542 c-13 -25 4 -54 19 -32 13 19 13 50 0 50 -5 0 -14 -8 -19
-18z"/>
<path d="M5209 3519 c-25 -9 -26 -12 -17 -49 11 -41 25 -50 107 -64 l34 -6
-19 22 c-12 14 -14 18 -4 13 12 -6 12 -5 3 5 -12 13 -37 4 -28 -11 4 -5 1 -9
-4 -9 -6 0 -11 7 -11 15 0 8 -4 15 -10 15 -5 0 -10 -4 -10 -10 0 -19 -21 -10
-32 15 -14 31 -2 47 30 38 14 -3 21 -11 18 -19 -3 -8 1 -14 9 -14 9 0 12 6 9
15 -4 9 0 16 7 16 52 6 107 5 124 -1 11 -5 28 -11 38 -14 11 -3 21 -15 24 -27
3 -12 11 -18 19 -15 7 3 16 1 19 -4 8 -12 55 -13 55 -1 0 5 -16 21 -35 36 -60
45 -259 78 -326 54z"/>
<path d="M4468 3513 c7 -3 16 -2 19 1 4 3 -2 6 -13 5 -11 0 -14 -3 -6 -6z"/>
<path d="M4500 3500 c-12 -8 -9 -10 13 -10 16 0 26 4 22 10 -8 12 -16 12 -35
0z"/>
<path d="M5345 3451 c-6 -11 9 -23 19 -14 9 9 7 23 -3 23 -6 0 -12 -4 -16 -9z"/>
<path d="M4716 3081 c-4 -5 -23 -15 -42 -21 -89 -30 -164 -107 -164 -171 0
-29 22 -41 35 -19 3 6 22 10 41 10 19 0 34 5 34 10 0 6 10 8 23 5 17 -5 28 1
45 24 13 18 19 37 16 48 -5 15 -4 16 5 3 9 -13 11 -12 12 5 1 17 2 16 9 -5 5
-15 6 4 3 45 -6 75 -8 82 -17 66z"/>
<path d="M5000 2610 c0 -5 5 -10 11 -10 5 0 7 5 4 10 -3 6 -8 10 -11 10 -2 0
-4 -4 -4 -10z"/>
<path d="M5010 2559 c7 -11 14 -18 17 -15 8 8 -5 36 -17 36 -7 0 -7 -6 0 -21z"/>
<path d="M4652 2558 c-5 -7 -10 -26 -10 -42 0 -26 2 -27 11 -10 10 18 19 64
13 64 -2 0 -8 -6 -14 -12z"/>
<path d="M4976 2539 c12 -12 28 -19 35 -17 8 3 -1 12 -21 22 l-35 17 21 -22z"/>
<path d="M4991 2505 c0 -5 6 -19 14 -29 8 -11 15 -15 15 -10 0 6 -7 19 -15 30
-8 10 -14 15 -14 9z"/>
<path d="M4520 2485 c-10 -12 -10 -15 3 -15 19 0 31 16 18 24 -5 3 -14 -1 -21
-9z"/>
<path d="M5326 2427 c3 -10 9 -15 12 -12 3 3 0 11 -7 18 -10 9 -11 8 -5 -6z"/>
<path d="M4638 2394 c18 -9 35 -14 39 -10 9 9 2 13 -37 20 l-35 7 33 -17z"/>
<path d="M5342 2365 c0 -16 2 -22 5 -12 2 9 2 23 0 30 -3 6 -5 -1 -5 -18z"/>
<path d="M5387 2354 c6 -15 23 -19 23 -5 0 5 -7 11 -14 14 -10 4 -13 1 -9 -9z"/>
<path d="M4321 2134 c0 -11 3 -14 6 -6 3 7 2 16 -1 19 -3 4 -6 -2 -5 -13z"/>
<path d="M4632 2130 c7 -10 14 -18 15 -16 6 6 -9 36 -18 36 -5 0 -4 -9 3 -20z"/>
<path d="M4821 2124 c0 -11 3 -14 6 -6 3 7 2 16 -1 19 -3 4 -6 -2 -5 -13z"/>
<path d="M4610 2120 c0 -5 5 -10 10 -10 6 0 10 5 10 10 0 6 -4 10 -10 10 -5 0
-10 -4 -10 -10z"/>
<path d="M4590 2089 c0 -5 5 -7 10 -4 6 3 10 8 10 11 0 2 -4 4 -10 4 -5 0 -10
-5 -10 -11z"/>
<path d="M4827 2087 c-3 -8 -2 -19 3 -26 5 -9 9 -7 13 8 6 23 -8 39 -16 18z"/>
<path d="M4607 2065 c-10 -14 -14 -25 -9 -25 10 0 42 33 42 43 0 14 -16 5 -33
-18z"/>
<path d="M3425 3625 c0 -19 3 -35 8 -35 4 0 7 16 7 35 0 19 -3 35 -7 35 -5 0
-8 -16 -8 -35z"/>
<path d="M2030 1380 c0 -19 3 -21 12 -12 9 9 9 15 0 24 -9 9 -12 7 -12 -12z"/>
<path d="M2088 1363 c7 -3 16 -2 19 1 4 3 -2 6 -13 5 -11 0 -14 -3 -6 -6z"/>
<path d="M3836 1692 c-3 -5 1 -9 9 -9 8 0 12 4 9 9 -3 4 -7 8 -9 8 -2 0 -6 -4
-9 -8z"/>
<path d="M3875 1680 c3 -5 8 -10 11 -10 2 0 4 5 4 10 0 6 -5 10 -11 10 -5 0
-7 -4 -4 -10z"/>
<path d="M3550 1641 c0 -6 4 -13 10 -16 6 -3 7 1 4 9 -7 18 -14 21 -14 7z"/>
<path d="M3570 1604 c0 -6 7 -19 16 -30 14 -18 14 -18 3 6 -14 31 -19 36 -19
24z"/>
<path d="M3362 1560 c0 -14 2 -19 5 -12 2 6 2 18 0 25 -3 6 -5 1 -5 -13z"/>
<path d="M4135 1460 c-3 -5 -1 -10 4 -10 6 0 11 5 11 10 0 6 -2 10 -4 10 -3 0
-8 -4 -11 -10z"/>
<path d="M4645 1330 c-3 -5 -1 -10 4 -10 6 0 11 5 11 10 0 6 -2 10 -4 10 -3 0
-8 -4 -11 -10z"/>
<path d="M2576 554 c9 -64 14 -68 14 -11 0 25 -5 49 -11 52 -7 5 -8 -8 -3 -41z"/>
<path d="M690 85 c0 -8 5 -15 10 -15 6 0 10 7 10 15 0 8 -4 15 -10 15 -5 0
-10 -7 -10 -15z"/>
</g>
</svg>
